{"asset":{"generator":"glTF-Transform v3.10.0","version":"2.0"},"accessors":[{"type":"SCALAR","componentType":5125,"count":763290,"normalized":false,"byteOffset":0,"bufferView":0},{"type":"VEC3","componentType":5120,"count":763056,"normalized":true,"byteOffset":0,"bufferView":1},{"type":"VEC2","componentType":5126,"count":763056,"normalized":false,"byteOffset":0,"bufferView":2},{"type":"SCALAR","componentType":5125,"count":626022,"normalized":false,"byteOffset":3053160,"bufferView":0},{"type":"VEC3","componentType":5120,"count":625832,"normalized":true,"byteOffset":3052224,"bufferView":1},{"type":"VEC2","componentType":5126,"count":625832,"normalized":false,"byteOffset":6104448,"bufferView":2},{"type":"SCALAR","componentType":5125,"count":479424,"normalized":false,"byteOffset":5557248,"bufferView":0},{"type":"VEC3","componentType":5120,"count":479288,"normalized":true,"byteOffset":5555552,"bufferView":1},{"type":"VEC2","componentType":5126,"count":479288,"normalized":false,"byteOffset":11111104,"bufferView":2},{"type":"SCALAR","componentType":5125,"count":334413,"normalized":false,"byteOffset":7474944,"bufferView":0},{"type":"VEC3","componentType":5120,"count":334357,"normalized":true,"byteOffset":7472704,"bufferView":1},{"type":"VEC2","componentType":5126,"count":334357,"normalized":false,"byteOffset":14945408,"bufferView":2},{"type":"VEC3","componentType":5122,"count":763056,"max":[23998,32755,18294],"min":[-23886,-32679,-18310],"normalized":true,"byteOffset":17620264,"bufferView":2},{"type":"VEC3","componentType":5122,"count":625832,"max":[23414,32687,18250],"min":[-23790,-32647,-18202],"normalized":true,"byteOffset":23724712,"bufferView":2},{"type":"VEC3","componentType":5122,"count":479288,"max":[23974,32767,18310],"min":[-23998,-32699,-18054],"normalized":true,"byteOffset":28731368,"bufferView":2},{"type":"VEC3","componentType":5122,"count":334357,"max":[23746,32703,18310],"min":[-23938,-32767,-18250],"normalized":true,"byteOffset":32565672,"bufferView":2}],"bufferViews":[{"buffer":1,"byteOffset":0,"byteLength":8812596,"target":34963,"extensions":{"EXT_meshopt_compression":{"buffer":0,"byteOffset":0,"byteLength":734403,"mode":"TRIANGLES","byteStride":4,"count":2203149}}},{"buffer":1,"byteOffset":8812596,"byteLength":8810132,"target":34962,"byteStride":4,"extensions":{"EXT_meshopt_compression":{"buffer":0,"byteOffset":734404,"byteLength":2261638,"mode":"ATTRIBUTES","filter":"OCTAHEDRAL","byteStride":4,"count":2202533}}},{"buffer":1,"byteOffset":17622728,"byteLength":35240528,"target":34962,"byteStride":8,"extensions":{"EXT_meshopt_compression":{"buffer":0,"byteOffset":2996044,"byteLength":14466535,"mode":"ATTRIBUTES","byteStride":8,"count":4405066}}}],"samplers":[{"magFilter":9729,"minFilter":9987,"wrapS":10497,"wrapT":10497}],"textures":[{"source":0,"sampler":0},{"source":1,"sampler":0},{"source":2,"sampler":0},{"source":3,"sampler":0}],"images":[{"name":"texture_1001","mimeType":"image/png","uri":"baseColor_1.png"},{"name":"texture_1002","mimeType":"image/png","uri":"baseColor_2.png"},{"name":"texture_1003","mimeType":"image/png","uri":"baseColor_3.png"},{"name":"texture_1004","mimeType":"image/png","uri":"baseColor_4.png"}],"buffers":[{"name":"gucci_seal_teddy-processed","uri":"gucci_seal_teddy.bin","byteLength":17462580},{"byteLength":52863256,"extensions":{"EXT_meshopt_compression":{"fallback":true}}}],"materials":[{"name":"material_1001","doubleSided":true,"pbrMetallicRoughness":{"metallicFactor":0,"baseColorTexture":{"index":0}},"extensions":{"KHR_materials_ior":{"ior":1.4500000476837158},"KHR_materials_specular":{"specularFactor":0}}},{"name":"material_1002","doubleSided":true,"pbrMetallicRoughness":{"metallicFactor":0,"baseColorTexture":{"index":1}},"extensions":{"KHR_materials_ior":{"ior":1.4500000476837158},"KHR_materials_specular":{"specularFactor":0}}},{"name":"material_1003","doubleSided":true,"pbrMetallicRoughness":{"metallicFactor":0,"baseColorTexture":{"index":2}},"extensions":{"KHR_materials_ior":{"ior":1.4500000476837158},"KHR_materials_specular":{"specularFactor":0}}},{"name":"material_1004","doubleSided":true,"pbrMetallicRoughness":{"metallicFactor":0,"baseColorTexture":{"index":3}},"extensions":{"KHR_materials_ior":{"ior":1.4500000476837158},"KHR_materials_specular":{"specularFactor":0}}}],"meshes":[{"name":"texturedMesh","primitives":[{"attributes":{"NORMAL":1,"TEXCOORD_0":2,"POSITION":12},"mode":4,"material":0,"indices":0},{"attributes":{"NORMAL":4,"TEXCOORD_0":5,"POSITION":13},"mode":4,"material":1,"indices":3},{"attributes":{"NORMAL":7,"TEXCOORD_0":8,"POSITION":14},"mode":4,"material":2,"indices":6},{"attributes":{"NORMAL":10,"TEXCOORD_0":11,"POSITION":15},"mode":4,"material":3,"indices":9}]}],"nodes":[{"name":"texturedMesh","translation":[-0.014868742537712525,0.2818381177640468,0.08227797383238497],"rotation":[0.7070408463587631,-0.0096576008947199,-0.009657604223253744,0.7070408071862397],"scale":[0.3710849285202392,0.37108494906047224,0.37108494906047224],"mesh":0}],"scenes":[{"name":"Scene","nodes":[0]}],"scene":0,"extensionsUsed":["KHR_materials_ior","KHR_materials_specular","KHR_mesh_quantization","EXT_meshopt_compression"],"extensionsRequired":["KHR_mesh_quantization","EXT_meshopt_compression"]}