{
	"asset":{
		"generator":"Khronos glTF Blender I/O v4.0.44",
		"version":"2.0"
	},
	"scene":0,
	"scenes":[
		{
			"name":"Scene",
			"nodes":[
				0,
				1,
				5
			]
		}
	],
	"nodes":[
		{
			"name":"Geometry"
		},
		{
			"name":"Materials"
		},
		{
			"mesh":0,
			"name":"Mesh",
			"scale":[
				18.106887817382812,
				18.106887817382812,
				18.106887817382812
			]
		},
		{
			"children":[
				2
			],
			"name":"Geometry.001"
		},
		{
			"name":"Materials.001"
		},
		{
			"children":[
				3,
				4
			],
			"name":"ObjectCapture",
			"rotation":[
				0.7071068286895752,
				0,
				0,
				0.7071068286895752
			]
		}
	],
	"materials":[
		{
			"doubleSided":true,
			"name":"Texture.001",
			"pbrMetallicRoughness":{
				"baseColorTexture":{
					"index":0
				},
				"metallicFactor":0,
				"roughnessFactor":0.8999999761581421
			}
		}
	],
	"meshes":[
		{
			"name":"Mesh.001",
			"primitives":[
				{
					"attributes":{
						"POSITION":0,
						"NORMAL":1,
						"TEXCOORD_0":2
					},
					"indices":3,
					"material":0
				}
			]
		}
	],
	"textures":[
		{
			"sampler":0,
			"source":0
		}
	],
	"images":[
		{
			"mimeType":"image/png",
			"name":"baked_mesh_tex0",
			"uri":"baked_mesh_tex0.png"
		}
	],
	"accessors":[
		{
			"bufferView":0,
			"componentType":5126,
			"count":37436,
			"max":[
				0.03124256804585457,
				0.014528338797390461,
				5.837086456544904e-13
			],
			"min":[
				-0.028084782883524895,
				-0.048931241035461426,
				-0.15325120091438293
			],
			"type":"VEC3"
		},
		{
			"bufferView":1,
			"componentType":5126,
			"count":37436,
			"type":"VEC3"
		},
		{
			"bufferView":2,
			"componentType":5126,
			"count":37436,
			"type":"VEC2"
		},
		{
			"bufferView":3,
			"componentType":5123,
			"count":200532,
			"type":"SCALAR"
		}
	],
	"bufferViews":[
		{
			"buffer":0,
			"byteLength":449232,
			"byteOffset":0,
			"target":34962
		},
		{
			"buffer":0,
			"byteLength":449232,
			"byteOffset":449232,
			"target":34962
		},
		{
			"buffer":0,
			"byteLength":299488,
			"byteOffset":898464,
			"target":34962
		},
		{
			"buffer":0,
			"byteLength":401064,
			"byteOffset":1197952,
			"target":34963
		}
	],
	"samplers":[
		{
			"magFilter":9729,
			"minFilter":9987
		}
	],
	"buffers":[
		{
			"byteLength":1599016,
			"uri":"deluxe_energy_elixir.bin"
		}
	]
}
