{
	"asset":{
		"generator":"Khronos glTF Blender I/O v4.0.44",
		"version":"2.0"
	},
	"scene":0,
	"scenes":[
		{
			"name":"Scene",
			"nodes":[
				0,
				1
			]
		}
	],
	"nodes":[
		{
			"mesh":0,
			"name":"Handle",
			"scale":[
				0.25,
				0.25,
				0.25
			],
			"translation":[
				0,
				5.832822322845459,
				0
			]
		},
		{
			"mesh":1,
			"name":"valve",
			"rotation":[
				0.7071068286895752,
				0,
				0,
				0.7071068286895752
			],
			"scale":[
				0.25,
				0.25,
				0.25
			],
			"translation":[
				0,
				3.4996933937072754,
				0
			]
		}
	],
	"materials":[
		{
			"doubleSided":true,
			"name":"Material.001",
			"pbrMetallicRoughness":{
				"baseColorFactor":[
					0.003891783067956567,
					0.04224453121423721,
					0.0036621945910155773,
					1
				],
				"metallicFactor":0,
				"roughnessFactor":0.30000001192092896
			}
		},
		{
			"doubleSided":true,
			"name":"ball valve",
			"pbrMetallicRoughness":{
				"baseColorFactor":[
					0.2841840982437134,
					0.2804858088493347,
					0.29519206285476685,
					1
				],
				"roughnessFactor":0.25196850299835205
			}
		},
		{
			"doubleSided":true,
			"name":"Material.002",
			"pbrMetallicRoughness":{
				"baseColorFactor":[
					0.21226662397384644,
					0.11443039774894714,
					0.03559878095984459,
					1
				],
				"roughnessFactor":0.4000000059604645
			}
		},
		{
			"doubleSided":true,
			"name":"smooth",
			"pbrMetallicRoughness":{
				"baseColorFactor":[
					0.36984071135520935,
					0.1961650252342224,
					0.05833125859498978,
					1
				],
				"roughnessFactor":0.4000000059604645
			}
		}
	],
	"meshes":[
		{
			"name":"Sphere",
			"primitives":[
				{
					"attributes":{
						"POSITION":0,
						"NORMAL":1,
						"TEXCOORD_0":2
					},
					"indices":3,
					"material":0
				}
			]
		},
		{
			"name":"Sphere.002",
			"primitives":[
				{
					"attributes":{
						"POSITION":4,
						"NORMAL":5,
						"TEXCOORD_0":6
					},
					"indices":7,
					"material":1
				},
				{
					"attributes":{
						"POSITION":8,
						"NORMAL":9,
						"TEXCOORD_0":10
					},
					"indices":11,
					"material":2
				},
				{
					"attributes":{
						"POSITION":12,
						"NORMAL":13,
						"TEXCOORD_0":14
					},
					"indices":15,
					"material":3
				},
				{
					"attributes":{
						"POSITION":16,
						"NORMAL":17,
						"TEXCOORD_0":18
					},
					"indices":19,
					"material":3
				}
			]
		}
	],
	"accessors":[
		{
			"bufferView":0,
			"componentType":5126,
			"count":75008,
			"max":[
				5,
				1.2000000476837158,
				5
			],
			"min":[
				-5,
				-1.5600001811981201,
				-5
			],
			"type":"VEC3"
		},
		{
			"bufferView":1,
			"componentType":5126,
			"count":75008,
			"type":"VEC3"
		},
		{
			"bufferView":2,
			"componentType":5126,
			"count":75008,
			"type":"VEC2"
		},
		{
			"bufferView":3,
			"componentType":5125,
			"count":112116,
			"type":"SCALAR"
		},
		{
			"bufferView":4,
			"componentType":5126,
			"count":19520,
			"max":[
				3.3831284046173096,
				2.6732122898101807,
				2.6732137203216553
			],
			"min":[
				-3.274928331375122,
				-2.6732144355773926,
				-2.673211097717285
			],
			"type":"VEC3"
		},
		{
			"bufferView":5,
			"componentType":5126,
			"count":19520,
			"type":"VEC3"
		},
		{
			"bufferView":6,
			"componentType":5126,
			"count":19520,
			"type":"VEC2"
		},
		{
			"bufferView":7,
			"componentType":5123,
			"count":29376,
			"type":"SCALAR"
		},
		{
			"bufferView":8,
			"componentType":5126,
			"count":49130,
			"max":[
				6.129495620727539,
				3.175426959991455,
				2.750000238418579
			],
			"min":[
				-6.320505619049072,
				-3.175426483154297,
				-8.617120742797852
			],
			"type":"VEC3"
		},
		{
			"bufferView":9,
			"componentType":5126,
			"count":49130,
			"type":"VEC3"
		},
		{
			"bufferView":10,
			"componentType":5126,
			"count":49130,
			"type":"VEC2"
		},
		{
			"bufferView":11,
			"componentType":5123,
			"count":137076,
			"type":"SCALAR"
		},
		{
			"bufferView":12,
			"componentType":5126,
			"count":31295,
			"max":[
				6.129495620727539,
				2.700000047683716,
				2.700000286102295
			],
			"min":[
				-6.320505619049072,
				-2.700000047683716,
				-8.617120742797852
			],
			"type":"VEC3"
		},
		{
			"bufferView":13,
			"componentType":5126,
			"count":31295,
			"type":"VEC3"
		},
		{
			"bufferView":14,
			"componentType":5126,
			"count":31295,
			"type":"VEC2"
		},
		{
			"bufferView":15,
			"componentType":5123,
			"count":48324,
			"type":"SCALAR"
		},
		{
			"bufferView":16,
			"componentType":5126,
			"count":384,
			"max":[
				3.3831284046173096,
				1.6103557348251343,
				1.6103557348251343
			],
			"min":[
				-3.274928331375122,
				-1.6103557348251343,
				-1.6103557348251343
			],
			"type":"VEC3"
		},
		{
			"bufferView":17,
			"componentType":5126,
			"count":384,
			"type":"VEC3"
		},
		{
			"bufferView":18,
			"componentType":5126,
			"count":384,
			"type":"VEC2"
		},
		{
			"bufferView":19,
			"componentType":5123,
			"count":960,
			"type":"SCALAR"
		}
	],
	"bufferViews":[
		{
			"buffer":0,
			"byteLength":900096,
			"byteOffset":0,
			"target":34962
		},
		{
			"buffer":0,
			"byteLength":900096,
			"byteOffset":900096,
			"target":34962
		},
		{
			"buffer":0,
			"byteLength":600064,
			"byteOffset":1800192,
			"target":34962
		},
		{
			"buffer":0,
			"byteLength":448464,
			"byteOffset":2400256,
			"target":34963
		},
		{
			"buffer":0,
			"byteLength":234240,
			"byteOffset":2848720,
			"target":34962
		},
		{
			"buffer":0,
			"byteLength":234240,
			"byteOffset":3082960,
			"target":34962
		},
		{
			"buffer":0,
			"byteLength":156160,
			"byteOffset":3317200,
			"target":34962
		},
		{
			"buffer":0,
			"byteLength":58752,
			"byteOffset":3473360,
			"target":34963
		},
		{
			"buffer":0,
			"byteLength":589560,
			"byteOffset":3532112,
			"target":34962
		},
		{
			"buffer":0,
			"byteLength":589560,
			"byteOffset":4121672,
			"target":34962
		},
		{
			"buffer":0,
			"byteLength":393040,
			"byteOffset":4711232,
			"target":34962
		},
		{
			"buffer":0,
			"byteLength":274152,
			"byteOffset":5104272,
			"target":34963
		},
		{
			"buffer":0,
			"byteLength":375540,
			"byteOffset":5378424,
			"target":34962
		},
		{
			"buffer":0,
			"byteLength":375540,
			"byteOffset":5753964,
			"target":34962
		},
		{
			"buffer":0,
			"byteLength":250360,
			"byteOffset":6129504,
			"target":34962
		},
		{
			"buffer":0,
			"byteLength":96648,
			"byteOffset":6379864,
			"target":34963
		},
		{
			"buffer":0,
			"byteLength":4608,
			"byteOffset":6476512,
			"target":34962
		},
		{
			"buffer":0,
			"byteLength":4608,
			"byteOffset":6481120,
			"target":34962
		},
		{
			"buffer":0,
			"byteLength":3072,
			"byteOffset":6485728,
			"target":34962
		},
		{
			"buffer":0,
			"byteLength":1920,
			"byteOffset":6488800,
			"target":34963
		}
	],
	"buffers":[
		{
			"byteLength":6490720,
			"uri":"premium_ball_valve.bin"
		}
	]
}
